<svg width="659" height="466" viewBox="0 0 659 466" fill="none" xmlns="http://www.w3.org/2000/svg">
<g id="website">
<g id="Group">
<g id="Vector" filter="url(#filter0_d)">
<path d="M592.5 10.5H66.5C52.1406 10.5 40.5 22.1406 40.5 36.5V369.5C40.5 383.859 52.1406 395.5 66.5 395.5H592.5C606.859 395.5 618.5 383.859 618.5 369.5V36.5C618.5 22.1406 606.859 10.5 592.5 10.5Z" fill="black"/>
</g>
<path id="Vector_2" d="M592.5 10.5H66.5C52.1406 10.5 40.5 22.1406 40.5 36.5V369.5C40.5 383.859 52.1406 395.5 66.5 395.5H592.5C606.859 395.5 618.5 383.859 618.5 369.5V36.5C618.5 22.1406 606.859 10.5 592.5 10.5Z" fill="#777777"/>
</g>
<path id="Vector_3" d="M591.73 12.5H67.5C53.6929 12.5 42.5 23.6929 42.5 37.5V369.365C42.5 383.172 53.6929 394.365 67.5 394.365H591.73C605.537 394.365 616.73 383.172 616.73 369.365V37.5C616.73 23.6929 605.537 12.5 591.73 12.5Z" fill="url(#paint0_linear)"/>
<path id="Vector_4" opacity="0.1" d="M560.993 26.803H99.53C96.7686 26.803 94.53 29.0416 94.53 31.803V375.559C94.53 378.32 96.7686 380.559 99.53 380.559H560.993C563.754 380.559 565.993 378.32 565.993 375.559V31.803C565.993 29.0416 563.754 26.803 560.993 26.803Z" fill="#2A2A2A"/>
<mask id="mask0" mask-type="alpha" maskUnits="userSpaceOnUse" x="61" y="29" width="537" height="347">
<g id="f">
<path id="Vector_5" d="M589.53 29.803H69.53C65.1117 29.803 61.53 33.3847 61.53 37.803V367.803C61.53 372.221 65.1117 375.803 69.53 375.803H589.53C593.948 375.803 597.53 372.221 597.53 367.803V37.803C597.53 33.3847 593.948 29.803 589.53 29.803Z" fill="white"/>
</g>
</mask>
<g mask="url(#mask0)">
<g id="body">
<path id="Vector_6" d="M589.53 29.803H69.53C65.1117 29.803 61.53 33.3847 61.53 37.803V367.803C61.53 372.221 65.1117 375.803 69.53 375.803H589.53C593.948 375.803 597.53 372.221 597.53 367.803V37.803C597.53 33.3847 593.948 29.803 589.53 29.803Z" fill="#E8EAF6"/>
</g>
<g id="heading">
<g id="head">
<path id="Vector_7" fill-rule="evenodd" clip-rule="evenodd" d="M58 30H605V89H58V30Z" fill="#5267DF"/>
</g>
<g id="menu">
<path id="Vector_8" opacity="0.104" d="M561 76C569.837 76 577 68.8366 577 60C577 51.1634 569.837 44 561 44C552.163 44 545 51.1634 545 60C545 68.8366 552.163 76 561 76Z" fill="white"/>
</g>
<g id="logo">
<path id="Vector_9" opacity="0.245" d="M100 76C108.837 76 116 68.8366 116 60C116 51.1634 108.837 44 100 44C91.1634 44 84 51.1634 84 60C84 68.8366 91.1634 76 100 76Z" fill="white"/>
<path id="Vector_10" opacity="0.75" d="M248 50H134C132.343 50 131 51.3431 131 53C131 54.6569 132.343 56 134 56H248C249.657 56 251 54.6569 251 53C251 51.3431 249.657 50 248 50Z" fill="white"/>
<path id="Vector_11" opacity="0.25" d="M192 64H134C132.343 64 131 65.3431 131 67C131 68.6569 132.343 70 134 70H192C193.657 70 195 68.6569 195 67C195 65.3431 193.657 64 192 64Z" fill="white"/>
</g>
</g>
<g id="structure">
<g id="main">
<path id="Vector_12" d="M371.53 122.803H126.53C122.112 122.803 118.53 126.385 118.53 130.803V430.803C118.53 435.221 122.112 438.803 126.53 438.803H371.53C375.948 438.803 379.53 435.221 379.53 430.803V130.803C379.53 126.385 375.948 122.803 371.53 122.803Z" fill="white"/>
</g>
<g id="sidebar">
<path id="Vector_13" d="M533.53 122.803H421.53C417.112 122.803 413.53 126.385 413.53 130.803V430.803C413.53 435.221 417.112 438.803 421.53 438.803H533.53C537.948 438.803 541.53 435.221 541.53 430.803V130.803C541.53 126.385 537.948 122.803 533.53 122.803Z" fill="white"/>
</g>
</g>
<g id="lines">
<g id="line1">
<path id="Vector_14" opacity="0.25" d="M519 145H437C435.343 145 434 146.343 434 148C434 149.657 435.343 151 437 151H519C520.657 151 522 149.657 522 148C522 146.343 520.657 145 519 145Z" fill="#242A45"/>
<path id="Vector_15" opacity="0.25" d="M519 165H437C435.343 165 434 166.343 434 168C434 169.657 435.343 171 437 171H519C520.657 171 522 169.657 522 168C522 166.343 520.657 165 519 165Z" fill="#242A45"/>
<path id="Vector_16" opacity="0.25" d="M519 185H437C435.343 185 434 186.343 434 188C434 189.657 435.343 191 437 191H519C520.657 191 522 189.657 522 188C522 186.343 520.657 185 519 185Z" fill="#242A45"/>
<path id="Vector_17" opacity="0.25" d="M519 205H437C435.343 205 434 206.343 434 208C434 209.657 435.343 211 437 211H519C520.657 211 522 209.657 522 208C522 206.343 520.657 205 519 205Z" fill="#242A45"/>
</g>
<g id="line2">
<path id="Vector_18" opacity="0.25" d="M519 239H437C435.343 239 434 240.343 434 242C434 243.657 435.343 245 437 245H519C520.657 245 522 243.657 522 242C522 240.343 520.657 239 519 239Z" fill="#242A45"/>
<path id="Vector_19" opacity="0.25" d="M519 259H437C435.343 259 434 260.343 434 262C434 263.657 435.343 265 437 265H519C520.657 265 522 263.657 522 262C522 260.343 520.657 259 519 259Z" fill="#242A45"/>
<path id="Vector_20" opacity="0.25" d="M519 279H437C435.343 279 434 280.343 434 282C434 283.657 435.343 285 437 285H519C520.657 285 522 283.657 522 282C522 280.343 520.657 279 519 279Z" fill="#242A45"/>
</g>
</g>
<g id="shapes">
<g id="circle1">
<path id="Vector_21" opacity="0.5" d="M314 161H200C198.343 161 197 162.343 197 164C197 165.657 198.343 167 200 167H314C315.657 167 317 165.657 317 164C317 162.343 315.657 161 314 161Z" fill="#242A45"/>
<path id="Vector_22" opacity="0.25" d="M258 175H200C198.343 175 197 176.343 197 178C197 179.657 198.343 181 200 181H258C259.657 181 261 179.657 261 178C261 176.343 259.657 175 258 175Z" fill="#242A45"/>
<path id="Vector_23" d="M166 187C174.837 187 182 179.837 182 171C182 162.163 174.837 155 166 155C157.163 155 150 162.163 150 171C150 179.837 157.163 187 166 187Z" fill="#F98E5D"/>
</g>
<g id="circle2">
<path id="Vector_24" d="M166 243C174.837 243 182 235.837 182 227C182 218.163 174.837 211 166 211C157.163 211 150 218.163 150 227C150 235.837 157.163 243 166 243Z" fill="#6AC6D6"/>
<path id="Vector_25" opacity="0.5" d="M314 217H200C198.343 217 197 218.343 197 220C197 221.657 198.343 223 200 223H314C315.657 223 317 221.657 317 220C317 218.343 315.657 217 314 217Z" fill="#242A45"/>
<path id="Vector_26" opacity="0.25" d="M258 231H200C198.343 231 197 232.343 197 234C197 235.657 198.343 237 200 237H258C259.657 237 261 235.657 261 234C261 232.343 259.657 231 258 231Z" fill="#242A45"/>
</g>
<g id="circle3">
<path id="Vector_27" d="M166 299C174.837 299 182 291.837 182 283C182 274.163 174.837 267 166 267C157.163 267 150 274.163 150 283C150 291.837 157.163 299 166 299Z" fill="#A47ED4"/>
<path id="Vector_28" opacity="0.5" d="M314 273H200C198.343 273 197 274.343 197 276C197 277.657 198.343 279 200 279H314C315.657 279 317 277.657 317 276C317 274.343 315.657 273 314 273Z" fill="#242A45"/>
<path id="Vector_29" opacity="0.25" d="M258 287H200C198.343 287 197 288.343 197 290C197 291.657 198.343 293 200 293H258C259.657 293 261 291.657 261 290C261 288.343 259.657 287 258 287Z" fill="#242A45"/>
</g>
<g id="circle4">
<path id="Vector_30" d="M166 355C174.837 355 182 347.837 182 339C182 330.163 174.837 323 166 323C157.163 323 150 330.163 150 339C150 347.837 157.163 355 166 355Z" fill="#EC7878"/>
<path id="Vector_31" opacity="0.5" d="M314 329H200C198.343 329 197 330.343 197 332C197 333.657 198.343 335 200 335H314C315.657 335 317 333.657 317 332C317 330.343 315.657 329 314 329Z" fill="#242A45"/>
<path id="Vector_32" opacity="0.25" d="M258 343H200C198.343 343 197 344.343 197 346C197 347.657 198.343 349 200 349H258C259.657 349 261 347.657 261 346C261 344.343 259.657 343 258 343Z" fill="#242A45"/>
</g>
</g>
</g>
</g>
<defs>
<filter id="filter0_d" x="0.5" y="0.5" width="658" height="465" filterUnits="userSpaceOnUse" color-interpolation-filters="sRGB">
<feFlood flood-opacity="0" result="BackgroundImageFix"/>
<feColorMatrix in="SourceAlpha" type="matrix" values="0 0 0 0 0 0 0 0 0 0 0 0 0 0 0 0 0 0 127 0"/>
<feOffset dy="30"/>
<feGaussianBlur stdDeviation="20"/>
<feColorMatrix type="matrix" values="0 0 0 0 0.182433 0 0 0 0 0.230633 0 0 0 0 0.506058 0 0 0 0.20012 0"/>
<feBlend mode="normal" in2="BackgroundImageFix" result="effect1_dropShadow"/>
<feBlend mode="normal" in="SourceGraphic" in2="effect1_dropShadow" result="shape"/>
</filter>
<linearGradient id="paint0_linear" x1="611.062" y1="286.202" x2="151.849" y2="-19.1735" gradientUnits="userSpaceOnUse">
<stop stop-color="#151515"/>
<stop offset="1" stop-color="#3D3D3D"/>
</linearGradient>
</defs>
</svg>
